<svg xmlns="http://www.w3.org/2000/svg" xmlns:xlink="http://www.w3.org/1999/xlink" width="64" height="64" viewBox="0 0 64 64">
  <defs>
    <linearGradient id="linear-gradient" x1="0.621" x2="1.082" y2="0.379" gradientUnits="objectBoundingBox">
      <stop offset="0" stop-color="#4285eb"/>
      <stop offset="1" stop-color="#2ec7ff"/>
    </linearGradient>
    <linearGradient id="linear-gradient-2" x1="0.696" x2="0.54" y2="1.085" gradientUnits="objectBoundingBox">
      <stop offset="0" stop-color="#29cdff"/>
      <stop offset="0.379" stop-color="#148eff"/>
      <stop offset="1" stop-color="#0a60ff" stop-opacity="0.49"/>
    </linearGradient>
    <linearGradient id="linear-gradient-3" x1="0.681" y1="-0.357" x2="0.304" y2="1.149" gradientUnits="objectBoundingBox">
      <stop offset="0" stop-color="#fa8e7d"/>
      <stop offset="0.513" stop-color="#f74a5c"/>
      <stop offset="1" stop-color="#f51d2c"/>
    </linearGradient>
  </defs>
  <g id="组_6" data-name="组 6" transform="translate(-23.883 -26.843)">
    <g id="Page-1" transform="translate(24.053 87.715) rotate(-90)">
      <g id="logo" transform="translate(0 0)">
        <g id="Group-28-Copy-5" transform="translate(0 0)">
          <g id="Group-27-Copy-3" transform="translate(0 0)">
            <g id="Group-25">
              <g id="_2" data-name="2">
                <path id="Shape" d="M29.21,1.136,1.132,29.191a3.849,3.849,0,0,0,0,5.453L29.21,62.7a3.856,3.856,0,0,0,5.457,0L46.44,50.936a3.46,3.46,0,0,0-4.9-4.892L32.62,54.961a.916.916,0,0,1-1.322,0L8.876,32.558a.914.914,0,0,1,0-1.321L31.3,8.833a.916.916,0,0,1,1.322,0l8.925,8.917a3.46,3.46,0,0,0,4.9-4.892L34.669,1.1A3.894,3.894,0,0,0,29.21,1.136Z" fill="url(#linear-gradient)"/>
                <path id="Shape-2" data-name="Shape" d="M29.21,1.136,1.132,29.191a3.849,3.849,0,0,0,0,5.453L29.21,62.7a3.856,3.856,0,0,0,5.457,0L46.44,50.936a3.46,3.46,0,0,0-4.9-4.892L32.62,54.961a.916.916,0,0,1-1.322,0L8.876,32.558a.914.914,0,0,1,0-1.321L31.3,8.833c.936-.807,2.462-2.44,4.7-2.822q2.5-.426,5.464,1.875L34.669,1.1A3.894,3.894,0,0,0,29.21,1.136Z" fill="url(#linear-gradient-2)"/>
              </g>
            </g>
            <ellipse id="Combined-Shape" cx="10.767" cy="10.761" rx="10.767" ry="10.761" transform="translate(34.555 21.297)" fill="url(#linear-gradient-3)"/>
          </g>
        </g>
      </g>
    </g>
    <rect id="矩形_72" data-name="矩形 72" width="64" height="64" transform="translate(23.883 26.843)" fill="none"/>
  </g>
</svg>
